<?xml version="1.0" encoding="utf-8" ?><svg xmlns="http://www.w3.org/2000/svg" version="1.1" viewBox="0.000000 0.000000 2048.000000 2048.000000"><path d="M1156.073170,1862.073170 L1350.650216,1774.650216 L1670.880625,1628.880625 L1816.249955,1564.249955 L1823.787599,1553.787599 L1824.000000,1542.000000 L1824.000000,970.000000 L1818.516550,951.497979 L1810.074856,954.076121 L1741.926830,985.926830 L1622.073170,1040.073170 L1436.073170,1128.073170 L1309.300861,1189.227184 L1294.415296,1181.584704 L1077.585336,832.414664 L1065.349728,817.435333 L1064.000000,834.000000 L1064.000000,1884.000000 L1065.958116,1901.173055 L1073.147712,1901.069396 z M1337.264747,1300.889590 L1355.476713,1320.523287 L1446.643302,1427.356698 L1461.255219,1439.779498 L1471.069272,1429.069272 L1527.135205,1341.135205 L1585.585336,1247.585336 L1589.077317,1230.784085 L1547.203315,1201.493175 L1556.864795,1190.864795 L1707.406491,1109.406491 L1732.379196,1099.164257 L1734.000000,1116.000000 L1734.000000,1296.000000 L1728.318714,1313.204448 L1691.522355,1290.636620 L1676.930728,1298.930728 L1625.998314,1379.998314 L1574.001686,1460.001686 L1513.998314,1553.998314 L1471.117056,1619.095414 L1460.473823,1621.370574 L1398.523287,1553.476713 L1377.476713,1528.523287 L1227.121363,1361.070537 L1231.380349,1351.359972 L1328.436683,1300.592285 z M700.881258,1153.118742 L537.349784,1078.650216 L359.134572,996.865428 L237.896689,944.181627 L228.868876,946.922177 L225.444785,964.629257 L226.000000,988.000000 L226.000000,1542.000000 L228.830865,1561.169135 L285.926830,1586.073170 L360.867114,1621.132886 L395.118742,1634.881258 L470.977417,1669.022583 L519.778507,1692.221493 L630.650216,1741.349784 L769.926830,1804.073170 L986.653027,1904.365545 L992.000000,1886.000000 L992.000000,832.000000 L988.086169,815.067598 L962.864795,850.864795 L910.864795,932.864795 L833.134572,1059.134572 L762.811249,1170.809984 L750.929463,1174.914934 z M779.585336,1029.585336 L818.414664,966.414664 L894.592876,846.592876 L932.847455,784.847455 L938.252556,769.492886 L933.045529,762.934095 L893.134572,744.865428 L772.074856,695.925144 L725.925144,676.074856 L621.778507,634.221493 L573.933014,614.066986 L384.066986,537.933014 L370.760772,531.446866 L374.051032,524.026018 L646.221493,418.221493 L718.864795,388.864795 L741.135205,381.135205 L816.864795,350.864795 L954.864795,296.864795 L1002.920625,278.920625 L1021.353185,265.508787 L1021.143665,256.716472 L936.864795,143.135205 L883.065905,68.934095 L869.126702,61.142496 L856.872665,62.877302 L698.865428,126.865428 L569.933014,179.933014 L460.864795,222.864795 L262.066986,302.066986 L139.852309,351.852309 L128.949629,362.286063 L130.983587,369.038055 L263.435750,498.564250 L273.052979,517.374214 L255.229447,537.229447 L176.522655,614.522655 L61.484582,729.484582 L25.014002,764.593837 L34.016462,775.983538 L62.905758,791.094242 L174.073170,843.926830 L279.926830,892.073170 L342.129962,921.870038 L386.650216,941.349784 L489.349784,988.650216 L577.926830,1028.073170 L691.077689,1080.922311 L730.992560,1098.312215 L735.817586,1097.499723 z M1974.905758,804.905758 L2042.125544,774.125544 L2047.286204,767.441807 L2043.448376,754.551624 L2011.526177,724.473823 L1949.526177,662.473823 L1862.481692,579.518308 L1809.001735,527.153867 L1809.051200,518.895597 L1824.643302,504.643302 L1973.476713,381.476713 L1985.034830,369.357331 L1980.182336,359.813027 L1768.864795,279.135205 L1664.221493,237.778507 L1608.864795,217.135205 L1477.780193,166.219807 L1235.402818,70.601819 L1214.918265,74.918265 L1121.374214,199.374214 L1066.955523,270.617284 L1074.867747,281.132253 L1294.864795,367.135205 L1353.135205,388.864795 L1575.778507,476.221493 L1656.864795,507.135205 L1694.140735,519.854628 L1694.636444,530.642346 L1627.134572,559.134572 L1468.865428,622.865428 L1307.135205,689.135205 L1152.864795,750.864795 L1119.884645,765.864268 L1120.446871,785.553129 L1186.937965,893.062035 L1215.062035,936.937965 L1316.736933,1101.258429 L1329.885868,1103.829194 L1378.065300,1080.065300 L1552.073170,998.073170 L1759.118742,905.118742 L1840.905758,866.905758 L1890.921257,844.921257 z M718.932409,1302.952785 L731.094242,1300.962432 L824.566225,1351.433775 L827.446057,1367.450694 L762.643302,1440.643302 L699.476713,1513.476713 L642.643302,1576.643302 L595.356698,1631.356698 L580.866482,1636.977916 L531.119375,1566.880625 L429.218653,1426.781347 L379.083911,1355.136002 L372.771901,1353.435467 L306.079488,1391.602650 L300.000000,1374.000000 L300.000000,1186.000000 L301.907598,1168.877463 L307.173730,1169.038547 L367.843807,1198.156193 L478.650216,1247.349784 L515.181557,1266.423166 L507.053442,1275.053442 L475.565156,1295.007264 L476.951737,1305.069904 L578.931776,1453.011550 L587.187852,1454.865351 L641.356698,1393.356698 z M372.868456,1348.868456 L372.881544,1348.881544 L372.868456,1348.868456 z M1940.000000,2048.000000 L2039.761581,2047.761581 L2045.607469,2045.607469 L2047.509286,2022.490714 L2039.761581,2016.238419 L1928.238419,2016.238419 L1920.490714,2022.490714 L1922.392531,2045.607469 z" fill="#ccae7a" stroke-width="1.000000" stroke="none" /></svg>