<?xml version="1.0" encoding="utf-8" ?><svg xmlns="http://www.w3.org/2000/svg" version="1.1" viewBox="0.000000 0.000000 2048.000000 2048.000000"><path d="M1429.452839,1538.440173 L1429.075298,1553.119183 L1424.362285,1564.362804 L1409.506333,1569.506333 L1326.053494,1569.946506 L1310.902760,1569.097241 L1299.637715,1564.362804 L1295.559615,1556.456963 L1294.924702,1534.880817 L1299.637715,1523.637196 L1310.902760,1518.902759 L1326.053494,1518.053494 L1409.506333,1518.493667 L1422.138873,1521.860994 L1426.138033,1525.860155 z M1453.991747,812.008253 L1485.106394,812.893606 L1499.217353,814.782647 L1516.292021,819.707979 L1530.338490,827.661510 L1538.206309,835.793691 L1543.836742,846.163258 L1547.452723,864.547277 L1547.990826,888.009174 L1548.008038,1193.991719 L1549.853301,1258.600818 L1549.999197,1290.001607 L1550.008127,1601.991873 L1551.644755,1650.355245 L1551.991032,1773.991032 L1551.499670,1797.499670 L1547.507048,1819.507048 L1540.474933,1832.474933 L1527.469034,1843.469034 L1516.154681,1848.154681 L1492.901194,1852.901194 L1461.991079,1853.991079 L1166.008127,1853.991873 L1117.644755,1852.355245 L1085.998796,1852.001204 L962.000008,1852.000008 L914.355367,1852.355367 L859.279654,1855.279654 L827.991873,1855.991873 L544.008391,1855.991609 L520.427489,1855.572511 L494.266758,1851.733242 L482.398715,1847.601285 L466.626746,1837.373254 L453.604256,1818.395744 L449.062949,1798.937051 L448.158273,1783.841727 L448.000000,1732.000000 L448.008967,894.008967 L448.500137,870.500137 L452.439291,848.439291 L457.448404,837.448404 L465.341179,827.341179 L483.396051,815.396051 L505.386053,809.386053 L538.008963,808.008963 L935.998232,808.000898 L967.167949,808.227251 L1024.013127,809.994223 L1177.998796,810.001204 L1209.644755,810.355245 L1258.008127,811.991873 z M1149.048423,1556.951577 L1146.822558,1547.177442 L1140.891122,1537.108878 L1132.088093,1529.911907 L1116.903999,1525.096001 L1077.999517,1524.000483 L894.050179,1524.050179 L878.595531,1524.595531 L863.489724,1527.489724 L849.328015,1537.328015 L843.769211,1547.769174 L840.996905,1560.992612 L840.364208,1589.653714 L841.631771,1614.331209 L841.547157,1665.414633 L840.055003,1704.132706 L840.175063,1767.824937 L841.246293,1782.753707 L844.361145,1795.638855 L849.844365,1806.155635 L857.748034,1814.251966 L871.898480,1820.101520 L902.021227,1821.978773 L1093.949906,1821.949906 L1123.033170,1819.033170 L1132.581649,1814.581649 L1140.921040,1806.921040 L1148.906608,1786.906608 L1149.974194,1763.974194 L1149.988626,1582.011374 z M1505.684702,1803.684702 L1508.762931,1790.762931 L1509.990971,1759.990971 L1509.989440,1270.010560 L1508.219154,1237.780846 L1503.135963,1222.864037 L1496.529792,1213.470208 L1486.428538,1205.571462 L1468.388479,1199.611521 L1437.979996,1198.020004 L1288.001224,1198.001224 L1256.439140,1198.439140 L1240.370779,1200.370779 L1228.352296,1204.352296 L1211.118021,1219.118021 L1205.152442,1231.152376 L1202.180377,1252.143350 L1201.523087,1297.977205 L1200.038827,1338.038864 L1200.008121,1387.991864 L1201.367680,1432.045678 L1201.989573,1480.026615 L1201.644755,1523.644755 L1200.355367,1548.355124 L1200.355367,1587.644876 L1201.924660,1624.075340 L1202.115178,1777.884822 L1203.062984,1792.937016 L1206.976213,1807.023787 L1216.720803,1819.279197 L1227.134160,1824.865840 L1256.051395,1827.948605 L1425.893919,1828.091314 L1452.381930,1830.381930 L1475.309013,1827.173051 L1488.890683,1822.889005 L1500.066920,1814.066919 z M284.075340,541.924660 L285.991873,602.008127 L285.991873,1597.991873 L284.075340,1658.075340 L284.008199,1831.991801 L284.838917,1863.161083 L287.210443,1882.789557 L291.284908,1900.715092 L300.611304,1923.388696 L312.560768,1941.439232 L322.795523,1953.204477 L341.227113,1968.772887 L350.331260,1973.668740 L366.672778,1977.327222 L390.010821,1977.989179 L1597.989179,1977.989179 L1621.327260,1977.327260 L1643.070429,1971.070429 L1652.653088,1964.653088 L1669.397199,1949.397199 L1685.814726,1927.814726 L1691.456996,1917.456996 L1699.465855,1893.465855 L1703.123069,1869.123069 L1703.999998,1809.999998 L1703.999998,240.000002 L1703.558877,188.441123 L1698.543290,157.456710 L1690.592491,135.407509 L1684.148323,123.851677 L1663.049484,98.950516 L1645.751188,86.248812 L1628.794331,77.205669 L1604.865170,69.134830 L1575.844441,66.155559 L1531.999998,66.000002 L454.000002,66.000002 L410.157788,66.157788 L388.010610,68.010610 L375.041463,71.041463 L355.059130,79.059130 L343.765315,85.765315 L326.754493,98.754493 L308.989822,118.989822 L296.934522,138.934522 L288.665324,162.665324 L286.084813,192.084813 L285.999598,307.999598 L285.644755,343.644755 L284.038844,384.038844 z M789.337552,1103.337552 L789.989230,1079.989230 L789.950316,890.049684 L789.420592,874.579408 L785.011479,854.988521 L778.545178,845.454822 L767.807002,838.192998 L743.798285,834.201715 L616.021786,833.984759 L578.310907,833.565102 L530.181524,834.181590 L515.341985,835.341985 L502.890033,838.890033 L491.518523,847.518523 L483.341987,867.341987 L482.009175,898.009175 L482.000034,1061.999966 L482.334187,1101.665813 L483.712868,1114.287132 L489.639245,1128.360755 L498.030481,1135.969276 L508.863437,1141.120309 L530.251719,1144.863357 L555.714168,1144.739934 L603.916997,1146.829110 L629.982867,1146.544736 L662.402305,1144.324475 L733.912518,1143.912518 L749.227656,1143.227656 L768.510670,1138.510670 L778.808307,1130.808307 L785.131802,1121.131802 z M1324.053494,1424.053494 L1387.997130,1424.002870 L1411.506333,1424.493667 L1426.362478,1429.637389 L1431.693792,1448.199220 L1431.088951,1463.105530 L1426.362478,1474.362611 L1415.097240,1479.097241 L1399.946506,1479.946506 L1336.002870,1479.997130 L1312.493667,1479.506333 L1297.637522,1474.362611 L1292.306208,1455.800780 L1292.911049,1440.894470 L1297.637522,1429.637389 L1308.902760,1424.902759 z M782.117437,1804.117437 L788.368043,1788.368043 L789.943302,1765.943302 L789.950264,1578.049736 L787.095487,1548.904513 L783.417574,1540.582426 L774.632941,1531.367059 L753.320371,1524.679629 L737.943140,1524.056860 L552.000483,1524.000483 L513.100810,1525.100810 L500.651664,1528.651664 L489.987466,1537.987466 L484.962488,1548.962488 L482.054596,1578.054596 L482.022696,1757.977304 L484.009905,1787.990095 L489.570379,1802.429621 L496.812266,1811.187734 L509.348721,1818.651279 L522.680160,1821.319840 L538.056870,1821.943130 L725.978843,1821.978843 L757.838202,1819.838202 L769.606509,1815.606509 z M428.713858,258.713858 L434.543329,248.543329 L443.469205,239.469205 L460.793372,230.793372 L482.192260,228.192260 L526.000002,228.000002 L1459.999998,228.000002 L1503.838855,228.161145 L1532.127112,231.872888 L1544.341658,237.658326 L1552.931483,245.066109 L1559.385828,254.536485 L1564.099396,270.646409 L1565.728992,290.725060 L1565.644728,333.644797 L1564.008127,382.008127 L1563.998529,537.998529 L1563.620991,565.620991 L1562.166529,578.166529 L1556.676514,592.676514 L1549.413779,601.413779 L1530.527417,612.527417 L1511.621236,615.621236 L1463.999998,615.999998 L526.000002,615.999998 L482.186857,615.813143 L460.660680,613.339320 L449.125855,608.874145 L433.189100,594.810900 L426.816254,581.183746 L424.049679,551.950321 L424.003717,306.003717 L424.889582,274.889582 z M787.006289,1214.993711 L781.851738,1204.148262 L766.696114,1193.303886 L753.325843,1190.674157 L698.355245,1189.644755 L673.644760,1188.355249 L628.452628,1188.154644 L576.719340,1188.670612 L542.201704,1189.674334 L522.408357,1188.592451 L504.354874,1190.886679 L495.032427,1197.071861 L485.493800,1211.493866 L482.713219,1224.713219 L482.059178,1240.059178 L482.021157,1415.978843 L484.159569,1447.840431 L489.850068,1462.149932 L502.365510,1473.634490 L514.159569,1477.840431 L546.021157,1479.978843 L695.961156,1479.961156 L753.419236,1477.419236 L766.896079,1474.896079 L780.255136,1466.255136 L787.237540,1453.237540 L789.974413,1421.974413 L789.954082,1246.045918 z M1115.037657,1190.962343 L1091.977146,1190.022855 L1029.291909,1189.084983 L981.948430,1189.967094 L886.204535,1190.204535 L871.555527,1191.555527 L857.221083,1197.221083 L845.316195,1213.316195 L842.056717,1242.056717 L842.025824,1423.974176 L842.404538,1439.595462 L846.685746,1459.314254 L853.727997,1468.272003 L862.396763,1473.603237 L875.076257,1476.923743 L914.000483,1477.999517 L1097.947986,1477.947986 L1113.363057,1477.363057 L1132.160395,1472.160395 L1140.561393,1464.561393 L1145.670604,1453.670604 L1147.976444,1423.976444 L1147.973246,1244.026754 L1147.578923,1228.421077 L1143.282069,1208.717931 L1136.472023,1199.527977 L1126.452023,1193.547977 z M1198.924514,1109.075486 L1201.819684,1122.180316 L1213.548212,1138.451788 L1227.542914,1144.457086 L1258.006344,1145.993656 L1459.947927,1145.947927 L1475.358261,1145.358261 L1493.873464,1139.873464 L1501.465527,1131.465527 L1508.510402,1108.510402 L1509.980153,1077.980153 L1509.951691,894.048309 L1507.538116,864.461884 L1503.648893,852.351107 L1493.954103,840.045897 L1482.407838,835.592162 L1451.990114,834.009886 L1250.027239,834.027239 L1232.571689,834.571689 L1216.307449,838.307449 L1207.152667,845.152667 L1200.864971,856.864971 L1198.048916,886.048916 L1198.000440,1069.999560 z M841.351048,1115.130858 L846.020218,1126.007088 L853.023264,1134.977120 L862.709102,1141.290899 L875.291560,1144.708440 L890.176984,1145.823016 L957.643305,1146.353798 L989.424701,1147.210180 L1034.378932,1144.107808 L1103.877580,1143.877580 L1118.832902,1142.832902 L1131.081117,1139.081117 L1143.282090,1127.282090 L1146.989212,1118.989212 L1149.949674,1089.949674 L1149.978792,894.021208 L1148.139338,863.860662 L1144.073970,851.926030 L1137.009323,842.990677 L1126.796756,837.203244 L1105.795464,834.204536 L1028.038844,834.038844 L975.924660,835.924660 L874.245924,835.922705 L862.287728,838.651758 L852.808886,844.830669 L845.720409,853.607430 L841.450437,864.565515 L840.023114,877.461400 L839.970485,1067.966411 L839.010326,1102.104741 z" stroke-width="1.000000" stroke="none" fill="black" /></svg>