<?xml version="1.0" encoding="utf-8" ?><svg xmlns="http://www.w3.org/2000/svg" version="1.1" viewBox="0.000000 0.000000 2048.000000 2048.000000"><path d="M1933.631562,1913.631562 L1904.761390,1950.761390 L1881.635768,1965.635768 L1844.774683,1971.165655 L1828.311835,1957.688202 L1829.314752,1921.314751 L1844.632442,1894.632442 L1881.929404,1859.929404 L1925.716817,1847.211312 L1943.789223,1860.207594 L1944.599596,1882.615596 z M685.262847,335.262847 L700.334123,300.838885 L718.988297,329.011703 L729.857430,364.142570 L736.912452,445.087548 L748.905461,555.094539 L767.565422,696.434578 L779.550725,762.449275 L801.831332,868.168668 L821.040388,938.959612 L847.830493,1020.169507 L872.306910,1079.693090 L909.227222,1152.378894 L897.882085,1161.901196 L512.146335,1161.929616 L500.360941,1156.652109 L538.900928,1080.900928 L574.396452,988.396452 L603.899937,887.899937 L618.247005,826.247005 L635.952224,737.952224 L659.094015,575.094015 L675.446415,433.446415 z M639.928586,311.928586 L586.676676,398.676676 L539.006481,467.006481 L498.088984,520.088984 L437.460993,593.460993 L307.506913,729.506913 L226.921932,806.921932 L153.141094,881.429626 L197.483576,807.483576 L259.797205,709.797205 L286.634355,670.634355 L323.159802,611.159802 L412.845838,476.845838 L487.457880,359.457880 L540.187924,282.187924 L579.155336,219.155336 L616.900066,165.398830 L643.431398,188.568602 L678.805811,205.077427 L683.857264,220.011671 L673.647872,245.647872 z M541.356218,541.356218 L605.294283,451.294283 L629.227432,411.895993 L632.210146,413.308410 L612.509510,558.509510 L601.007549,657.007549 L584.360316,758.360316 L571.502096,821.502096 L544.463306,922.463306 L523.998058,985.998058 L509.349348,1023.349348 L474.299899,1100.299899 L446.464996,1152.464996 L417.995949,1161.995949 L170.005644,1161.994356 L149.501075,1158.498925 L146.028201,1141.971799 L145.566998,984.956429 L147.559216,961.559179 L166.514062,936.514062 L207.393601,897.393601 L341.805775,763.805775 L465.035647,633.035647 z M1186.801863,1182.801863 L1204.499068,1136.499068 L1230.818991,1090.818991 L1257.347442,1061.347442 L1307.255700,1017.255700 L1346.549147,970.549147 L1374.415997,926.415997 L1390.233484,888.233484 L1406.418266,830.418266 L1415.694502,745.694930 L1414.047777,674.054360 L1422.714269,604.714269 L1440.649053,552.649053 L1477.349235,495.353510 L1492.214455,490.166078 L1522.912193,571.087807 L1554.927906,627.072094 L1586.048398,665.951602 L1616.914567,697.085433 L1677.668324,744.331676 L1721.376845,782.623155 L1758.915794,835.084206 L1777.359325,880.640675 L1785.722618,914.277382 L1792.602488,965.397512 L1794.682398,1009.680248 L1817.763452,989.763452 L1842.998057,956.998057 L1882.992436,889.669435 L1909.265814,918.734186 L1934.513399,957.486601 L1950.653305,991.346695 L1962.246464,1031.753536 L1967.691637,1072.305284 L1961.593258,1141.593258 L1937.284112,1223.284112 L1912.446822,1274.446822 L1877.760675,1329.760675 L1851.687691,1363.687691 L1817.558149,1399.558149 L1772.858905,1434.858905 L1735.978168,1453.978168 L1709.529520,1459.529520 L1676.230685,1474.750923 L1653.561454,1476.463190 L1690.443214,1454.443214 L1719.706201,1427.706201 L1754.038380,1370.038380 L1763.052202,1329.058785 L1765.107671,1293.745954 L1760.824501,1251.175499 L1751.806132,1222.195386 L1733.923535,1216.064373 L1723.605365,1250.212853 L1701.593079,1255.020632 L1711.686406,1189.701977 L1707.139013,1150.860987 L1695.679923,1122.320077 L1681.148886,1102.851114 L1646.546047,1073.480808 L1634.758317,1070.243833 L1641.804894,1108.179540 L1640.644365,1148.644402 L1624.991876,1182.991874 L1608.735399,1197.293170 L1596.865589,1193.097121 L1572.350611,1163.649389 L1564.961431,1123.655720 L1566.497748,1090.491165 L1574.097776,1050.097776 L1608.231852,983.330116 L1588.984718,980.986344 L1543.541423,1001.541423 L1508.964499,1024.964499 L1474.848185,1058.848185 L1453.579984,1091.579984 L1438.352104,1126.352104 L1430.138881,1178.138875 L1430.976128,1227.153292 L1425.923151,1255.923151 L1416.753597,1270.674203 L1398.449164,1261.550369 L1385.297279,1202.703191 L1371.315380,1191.472405 L1350.912229,1230.912229 L1333.213515,1285.213515 L1326.309100,1357.691949 L1331.424243,1396.575757 L1348.685999,1439.314001 L1372.237127,1465.762873 L1420.789221,1497.501947 L1383.700796,1492.299204 L1319.247420,1468.752580 L1263.179487,1430.820513 L1232.627109,1401.372891 L1207.255847,1366.744153 L1194.700509,1343.299491 L1182.237102,1303.762898 L1176.308595,1267.691407 L1177.573206,1227.573206 z M91.989252,981.087516 L95.627641,983.336474 L95.971799,1099.971799 L90.144266,1118.144266 L30.007239,1119.995951 L10.717061,1117.714911 L13.473639,1107.417236 z M1246.864143,1879.135857 L1272.048661,1913.951339 L1277.832027,1928.164857 L1277.984327,1958.429602 L1260.590472,1970.488955 L1226.341506,1967.658066 L1206.619602,1955.380398 L1182.987139,1933.012861 L1168.229851,1907.770149 L1158.689144,1877.773297 L1172.002968,1848.107173 L1184.917900,1847.220838 L1224.892797,1861.107203 z M1459.811903,1221.912992 L1460.698990,1158.698990 L1474.663928,1114.663928 L1512.665343,1060.665343 L1544.543488,1032.937372 L1550.747248,1035.845511 L1539.043342,1077.043342 L1536.199402,1108.015655 L1539.257615,1156.743433 L1547.602300,1178.397700 L1574.676978,1213.323022 L1611.584534,1227.023109 L1627.237655,1221.237547 L1660.080185,1180.080185 L1672.331729,1140.212912 L1681.853031,1162.146969 L1683.846327,1199.846332 L1667.294307,1253.293222 L1667.313413,1280.702190 L1685.245246,1292.577160 L1737.272037,1288.803705 L1737.292691,1311.567375 L1728.966794,1350.966794 L1719.149232,1377.149232 L1702.851742,1402.851742 L1669.071915,1437.071915 L1614.982585,1466.982585 L1569.254736,1479.254736 L1510.137127,1483.862445 L1472.050547,1479.949453 L1416.436757,1463.563243 L1381.720633,1438.279367 L1363.336160,1406.663840 L1354.137606,1357.862500 L1356.989766,1304.989766 L1365.841206,1276.816151 L1375.763617,1292.236533 L1395.480692,1302.228957 L1432.504526,1292.504526 L1452.775524,1266.775524 z M1661.000000,2045.000000 L1661.000000,2045.000000 L1661.000000,2045.000000 L1661.000000,2045.000000 z M1149.548257,1155.548257 L1139.391592,1161.391592 L994.003888,1161.996112 L965.699161,1154.300839 L927.216828,1082.783172 L898.979337,1019.020663 L877.843402,960.156598 L855.084278,884.915722 L837.170954,812.829046 L810.382683,665.617317 L796.494564,559.505436 L778.279269,408.722881 L841.007528,502.992472 L870.421083,543.578917 L914.615451,597.384549 L970.469485,661.530515 L1130.539166,825.460834 L1276.367423,965.551088 L1275.000151,985.037335 L1224.024189,1032.024189 L1191.062708,1073.062708 L1175.486585,1099.486585 z M1101.428276,1795.400629 L1090.576683,1838.576683 L1087.206003,1882.664152 L1093.317966,1922.682034 L1104.978222,1951.021778 L1124.765582,1983.234418 L1154.805303,2013.194697 L1211.861487,2042.138513 L1249.999528,2047.388854 L1279.594108,2043.594108 L1304.442178,2032.442178 L1464.713853,1918.713853 L1545.373062,1859.714017 L1562.436108,1861.626667 L1659.175523,1930.824477 L1773.267329,2014.732671 L1817.415159,2040.584841 L1848.574867,2047.422016 L1872.620958,2046.620530 L1892.518988,2039.174015 L1905.233936,2042.707183 L1949.662111,2013.662111 L1980.745695,1982.745695 L1999.584532,1951.584532 L2011.001248,1923.001248 L2017.042402,1887.045481 L2012.872758,1831.127242 L2004.921227,1795.764770 L2043.164633,1755.164633 L2047.632519,1739.632519 L2047.996181,1584.003819 L2042.573858,1553.426142 L2011.519866,1518.480134 L1979.934127,1498.065873 L1946.183111,1483.816889 L1890.597827,1478.598255 L1791.984140,1493.590256 L1784.277197,1490.568365 L1817.377358,1469.377358 L1854.874449,1436.874449 L1885.696842,1403.696842 L1911.067577,1371.067577 L1952.790979,1306.790979 L1979.676333,1251.676333 L2005.960866,1177.960866 L2014.824253,1170.824253 L2042.144267,1168.144267 L2047.145584,1161.145584 L2044.052186,1122.377517 L2018.757884,1115.236581 L2016.189708,1102.091552 L2015.382354,1034.617645 L2001.179059,974.820941 L1982.836817,931.163183 L1949.220883,880.779117 L1913.177395,840.822605 L1870.942120,807.057882 L1846.727875,802.980920 L1842.974786,850.974786 L1832.984370,879.705669 L1811.003783,816.996217 L1788.886505,779.113495 L1759.259963,742.740037 L1724.316057,708.297919 L1708.534618,699.458762 L1668.634336,667.365664 L1630.966122,633.033878 L1599.135821,594.864179 L1569.848742,546.151258 L1553.145692,506.854308 L1538.583415,443.416585 L1537.910462,386.127182 L1530.768405,375.436966 L1474.906167,420.906167 L1438.969007,456.969007 L1407.462224,497.462224 L1379.981142,551.981142 L1367.089668,597.089668 L1360.920235,644.920235 L1361.431050,761.431050 L1353.495800,821.495800 L1344.958215,856.958215 L1327.479456,903.439054 L1319.289318,910.940450 L1276.696945,835.303055 L1251.057692,798.942308 L1214.658179,739.341821 L1193.256351,708.743649 L1151.155128,640.844872 L1041.086715,474.913285 L975.459433,374.540567 L922.888713,291.111287 L870.513280,213.486720 L818.485382,131.514618 L809.313601,62.686399 L797.027921,34.972079 L779.990633,16.009367 L759.567141,2.432859 L735.984993,0.015007 L657.317973,1.317973 L640.844186,8.844186 L614.707257,36.707257 L599.619293,77.619293 L595.182987,127.360152 L348.542122,506.542122 L319.988320,547.988320 L256.305267,646.305267 L187.855848,755.855848 L133.089277,841.089277 L64.171420,954.171420 L35.753034,997.753034 L4.170787,1052.170787 L0.480563,1064.480563 L0.028201,1149.971799 L1.855734,1164.144266 L20.028201,1169.971799 L90.144266,1171.855734 L98.162721,1205.837279 L108.502226,1211.497774 L140.000000,1212.000000 L1098.000000,1212.000000 L1135.188261,1214.710651 L1138.848841,1225.340237 L1140.484942,1287.515058 L1151.541950,1334.458050 L1171.068038,1374.931962 L1191.040544,1404.959456 L1220.303313,1435.696687 L1252.573576,1461.426424 L1290.861210,1486.922071 L1291.204146,1491.697590 L1209.695731,1478.307348 L1158.025598,1484.025598 L1124.078387,1498.078387 L1094.775416,1516.775416 L1061.134071,1555.134071 L1036.296047,1610.296047 L1030.104433,1652.003238 L1033.918498,1688.081502 L1044.420353,1721.579647 L1064.747084,1757.252916 z M1702.696829,1590.724043 L1734.656741,1582.656741 L1892.574667,1560.577751 L1921.854825,1562.145180 L1946.521142,1569.478858 L1980.947212,1601.052788 L1995.710237,1636.288714 L1995.629780,1669.630208 L1981.360086,1703.360086 L1967.403280,1719.403280 L1941.749316,1735.749311 L1911.130612,1740.676227 L1876.749194,1719.250806 L1765.684214,1636.315786 z M1725.000000,1461.000000 L1725.000000,1461.000000 L1725.000000,1461.000000 L1725.000000,1461.000000 z M654.842649,135.157351 L645.179273,112.820833 L644.676141,86.675091 L662.803954,52.803954 L684.431301,38.431338 L708.461069,35.356869 L732.357602,39.642826 L761.255156,66.744844 L768.812398,89.086085 L763.627376,125.627376 L741.319338,151.319338 L716.931898,160.916226 L674.880377,153.119623 z M1514.949977,1580.953056 L1543.009299,1576.405314 L1584.955607,1579.044393 L1609.277491,1586.722509 L1640.859993,1605.140007 L1782.760224,1709.239776 L1888.970270,1789.029730 L1915.382583,1812.074947 L1869.216394,1829.216394 L1829.231309,1861.231309 L1806.645813,1892.645813 L1789.906514,1927.764645 L1765.013685,1914.986315 L1652.849145,1831.150855 L1636.810448,1821.189552 L1529.375994,1738.624006 L1469.604283,1696.395717 L1443.956300,1666.043737 L1444.424261,1628.424256 L1462.990101,1606.990101 L1488.593718,1590.593718 z M1259.556672,875.775195 L1258.092969,878.808767 L1134.543313,761.456687 L1038.667258,665.332747 L972.483404,593.516596 L904.788582,511.211418 L834.927906,415.072094 L773.651130,316.348870 L740.227787,253.772213 L725.779108,220.335470 L727.557478,207.095041 L763.048232,193.048232 L789.968269,170.426609 L798.521047,170.182340 L1009.419007,492.580993 L1050.263472,553.736528 L1123.134248,668.865752 L1148.888748,705.111252 L1221.806110,820.193890 z M1708.413627,1465.253958 L1714.551455,1463.009863 L1715.830019,1464.288427 z M1643.000000,1481.000000 L1643.000000,1481.000000 L1643.000000,1481.000000 L1643.000000,1481.000000 z M1694.000000,1470.980217 L1693.999997,1471.019786 L1693.999997,1470.980214 z M1126.558161,1598.558161 L1156.948382,1570.948382 L1194.334917,1560.337996 L1219.005451,1560.994586 L1398.502034,1588.643832 L1379.161331,1607.161331 L1311.196382,1659.196382 L1229.244546,1719.244546 L1185.871780,1742.427517 L1145.537651,1724.462349 L1120.357099,1695.642901 L1109.188517,1661.086267 L1110.190307,1640.183719 z M1.000000,1.000000 L1.000000,1.000000 L1.000000,1.000000 z M1699.999997,1468.980214 L1700.000000,1468.980217 L1699.999997,1469.019786 z M1407.592297,1652.410269 L1418.363742,1681.636258 L1446.227772,1713.772228 L1522.618104,1770.536747 L1520.991769,1779.405180 L1339.195806,1915.195806 L1317.484830,1926.746925 L1278.774791,1865.225209 L1247.526542,1836.473458 L1193.603204,1813.142398 L1194.765599,1804.564875 L1307.195078,1723.195078 L1376.805370,1668.805370 z M1708.812690,689.343515 L1709.016980,689.252426 L1708.765124,688.965470 z M1688.000000,1473.019783 L1688.000003,1472.980214 L1688.000003,1473.019786 z M1898.867581,2047.132419 L1898.882419,2047.117581 L1898.867581,2047.132419 L1898.882419,2047.117581 z M1829.000000,889.000000 L1829.000000,889.000000 L1829.000000,889.000000 L1829.000000,889.000000 z" fill="black" stroke-width="1.000000" stroke="none" /></svg>