<?xml version="1.0" encoding="utf-8" ?><svg xmlns="http://www.w3.org/2000/svg" version="1.1" viewBox="8.168195 32.168195 247.768731 180.768731"><path d="M29.23,144.19 L28.83,144.21 L28.43,144.37 L28.03,144.67 L27.62,145.12 L27.22,145.72 L26.46,147.52 L25.34,150.53 L23.88,154.75 L22.06,160.18 L20.53,164.65 L19.29,168.16 L18.33,170.71 L17.67,172.29 L16.98,173.98 L16.26,175.76 L15.52,177.65 L14.76,179.63 L14.22,181.25 L13.92,182.52 L13.84,183.42 L14.00,183.96 L14.42,184.43 L15.12,184.83 L16.08,185.17 L17.32,185.43 L18.60,185.65 L19.92,185.83 L21.29,185.96 L22.71,186.04 L24.08,186.17 L25.42,186.33 L26.71,186.54 L27.96,186.79 L29.68,187.20 L31.87,187.75 L34.54,188.46 L37.68,189.32 L40.78,190.22 L43.85,191.15 L46.87,192.13 L49.85,193.15 L52.40,194.03 L54.52,194.79 L56.20,195.42 L57.45,195.92 L58.73,196.46 L60.02,197.04 L61.33,197.67 L62.67,198.33 L63.82,198.82 L64.80,199.13 L65.60,199.27 L66.23,199.22 L66.74,199.11 L67.13,198.92 L67.41,198.66 L67.58,198.33 L67.82,197.63 L68.12,196.56 L68.50,195.12 L68.94,193.32 L69.32,191.82 L69.64,190.64 L69.90,189.78 L70.10,189.22 L70.45,188.07 L70.95,186.32 L71.60,183.97 L72.40,181.03 L73.12,178.49 L73.74,176.37 L74.28,174.65 L74.72,173.35 L75.21,171.84 L75.74,170.11 L76.31,168.18 L76.92,166.04 L77.37,164.27 L77.67,162.88 L77.81,161.86 L77.79,161.21 L77.72,160.66 L77.59,160.21 L77.39,159.86 L77.14,159.61 L76.79,159.39 L76.34,159.22 L75.79,159.08 L75.14,158.98 L73.81,158.69 L71.79,158.21 L69.08,157.54 L65.69,156.68 L62.71,155.91 L60.14,155.23 L57.98,154.64 L56.23,154.14 L54.05,153.45 L51.43,152.57 L48.38,151.49 L44.90,150.23 L41.67,149.02 L38.70,147.87 L35.98,146.77 L33.52,145.73 L31.58,144.95 L30.15,144.44 z M79.31,115.81 L79.01,115.18 L78.60,114.46 L78.10,113.65 L77.50,112.75 L76.82,111.87 L76.05,111.04 L75.19,110.23 L74.25,109.45 L73.53,108.80 L73.02,108.28 L72.73,107.89 L72.66,107.62 L72.83,106.85 L73.22,105.56 L73.85,103.77 L74.71,101.46 L75.44,99.64 L76.03,98.32 L76.48,97.48 L76.80,97.14 L77.17,96.95 L77.57,96.93 L78.01,97.06 L78.50,97.34 L78.90,97.65 L79.22,97.96 L79.45,98.30 L79.60,98.65 L79.73,99.15 L79.83,99.80 L79.89,100.61 L79.94,101.56 L80.00,102.43 L80.09,103.22 L80.21,103.91 L80.35,104.52 L80.62,105.07 L81.01,105.55 L81.54,105.96 L82.19,106.31 L82.84,106.57 L83.49,106.73 L84.14,106.81 L84.79,106.79 L85.34,106.72 L85.79,106.59 L86.14,106.39 L86.39,106.14 L86.64,105.66 L86.87,104.94 L87.10,103.98 L87.33,102.79 L87.39,101.58 L87.30,100.36 L87.04,99.12 L86.62,97.88 L86.20,96.80 L85.77,95.90 L85.33,95.17 L84.89,94.61 L84.40,94.10 L83.88,93.62 L83.31,93.19 L82.69,92.81 L82.14,92.38 L81.66,91.90 L81.24,91.39 L80.88,90.83 L80.63,90.18 L80.51,89.43 L80.50,88.59 L80.61,87.64 L80.60,86.84 L80.47,86.17 L80.23,85.65 L79.87,85.26 L79.41,84.94 L78.84,84.69 L78.17,84.51 L77.39,84.40 L76.68,84.50 L76.04,84.81 L75.45,85.33 L74.94,86.06 L74.47,86.65 L74.04,87.10 L73.66,87.41 L73.33,87.58 L72.73,87.73 L71.85,87.85 L70.71,87.96 L69.29,88.04 L67.89,88.27 L66.51,88.64 L65.15,89.15 L63.80,89.80 L62.68,90.43 L61.78,91.03 L61.11,91.61 L60.67,92.17 L60.28,92.72 L59.96,93.27 L59.69,93.81 L59.48,94.36 L59.32,95.18 L59.22,96.28 L59.17,97.67 L59.17,99.33 L59.27,100.79 L59.47,102.05 L59.77,103.10 L60.17,103.95 L60.69,104.81 L61.32,105.68 L62.07,106.56 L62.93,107.44 L63.66,108.27 L64.27,109.04 L64.74,109.76 L65.09,110.41 L65.36,111.00 L65.55,111.51 L65.67,111.96 L65.71,112.33 L65.59,113.01 L65.30,114.01 L64.85,115.31 L64.24,116.92 L63.67,118.31 L63.14,119.50 L62.64,120.47 L62.19,121.23 L61.78,121.81 L61.43,122.19 L61.13,122.38 L60.87,122.38 L60.60,122.22 L60.31,121.90 L60.00,121.42 L59.67,120.79 L59.39,119.90 L59.18,118.75 L59.02,117.36 L58.92,115.71 L58.74,114.41 L58.48,113.46 L58.15,112.86 L57.73,112.61 L57.17,112.48 L56.47,112.47 L55.63,112.58 L54.64,112.82 L53.78,113.12 L53.04,113.48 L52.42,113.92 L51.92,114.42 L51.54,114.96 L51.29,115.54 L51.17,116.17 L51.17,116.83 L51.23,117.52 L51.34,118.24 L51.52,118.98 L51.75,119.75 L52.03,120.53 L52.36,121.33 L52.73,122.14 L53.15,122.98 L53.69,123.87 L54.36,124.83 L55.15,125.85 L56.07,126.93 L56.78,127.89 L57.28,128.72 L57.59,129.41 L57.68,129.98 L57.73,130.54 L57.71,131.10 L57.65,131.64 L57.52,132.19 L57.46,132.67 L57.46,133.08 L57.52,133.44 L57.65,133.73 L57.98,134.08 L58.51,134.48 L59.25,134.95 L60.19,135.48 L61.01,135.81 L61.70,135.96 L62.25,135.92 L62.68,135.68 L63.10,135.29 L63.51,134.73 L63.90,134.02 L64.27,133.15 L64.64,132.45 L64.99,131.93 L65.34,131.59 L65.67,131.42 L66.21,131.27 L66.96,131.15 L67.92,131.04 L69.08,130.96 L70.23,130.79 L71.36,130.55 L72.48,130.23 L73.58,129.83 L74.64,129.26 L75.66,128.53 L76.64,127.64 L77.58,126.58 L78.34,125.66 L78.92,124.86 L79.31,124.19 L79.52,123.64 L79.68,122.88 L79.78,121.91 L79.83,120.71 L79.83,119.29 L79.78,118.09 L79.68,117.12 L79.52,116.36 z M212.30,97.12 L212.65,99.09 L212.83,101.04 L212.83,102.96 L212.74,104.68 L212.55,106.20 L212.27,107.52 L211.89,108.64 L211.51,109.70 L211.11,110.68 L210.71,111.58 L210.29,112.42 L209.95,113.18 L209.69,113.88 L209.51,114.50 L209.40,115.06 L209.44,115.71 L209.65,116.46 L210.02,117.31 L210.54,118.25 L210.93,119.12 L211.17,119.90 L211.27,120.60 L211.22,121.23 L210.95,121.89 L210.43,122.58 L209.69,123.31 L208.70,124.08 L207.65,124.83 L206.54,125.58 L205.37,126.33 L204.14,127.06 L203.06,127.55 L202.12,127.80 L201.34,127.81 L200.72,127.58 L200.15,127.25 L199.64,126.85 L199.19,126.35 L198.81,125.77 L198.45,125.31 L198.13,124.98 L197.85,124.77 L197.60,124.69 L197.01,124.77 L196.09,125.01 L194.83,125.41 L193.23,125.98 L191.61,126.41 L189.98,126.69 L188.33,126.83 L186.67,126.83 L185.07,126.74 L183.55,126.55 L182.11,126.27 L180.73,125.89 L179.41,125.47 L178.14,124.99 L176.92,124.46 L175.75,123.87 L174.61,123.26 L173.50,122.63 L172.42,121.96 L171.36,121.27 L170.32,120.43 L169.29,119.46 L168.28,118.35 L167.28,117.10 L166.39,115.92 L165.63,114.81 L164.99,113.76 L164.46,112.79 L163.97,111.78 L163.52,110.73 L163.11,109.64 L162.73,108.52 L162.44,107.19 L162.23,105.64 L162.11,103.89 L162.06,101.94 L162.04,100.35 L162.04,99.15 L162.06,98.31 L162.11,97.86 L162.26,97.13 L162.52,96.15 L162.89,94.89 L163.38,93.38 L163.90,91.92 L164.46,90.53 L165.07,89.19 L165.70,87.91 L166.04,86.71 L166.07,85.57 L165.79,84.50 L165.21,83.50 L164.80,82.68 L164.58,82.03 L164.52,81.56 L164.65,81.27 L165.08,80.83 L165.82,80.23 L166.86,79.48 L168.20,78.58 L169.50,77.69 L170.74,76.80 L171.93,75.93 L173.07,75.07 L174.07,74.43 L174.94,74.00 L175.67,73.80 L176.27,73.81 L176.86,74.05 L177.46,74.51 L178.06,75.19 L178.66,76.09 L179.19,76.78 L179.66,77.28 L180.06,77.56 L180.39,77.65 L180.97,77.61 L181.80,77.45 L182.87,77.17 L184.19,76.77 L185.47,76.47 L186.71,76.27 L187.92,76.17 L189.08,76.17 L190.30,76.26 L191.57,76.45 L192.89,76.73 L194.27,77.11 L195.67,77.58 L197.09,78.16 L198.54,78.83 L200.01,79.61 L201.43,80.51 L202.79,81.52 L204.10,82.65 L205.35,83.90 L206.46,85.10 L207.43,86.26 L208.27,87.36 L208.96,88.42 L209.66,89.72 L210.36,91.27 L211.06,93.06 L211.77,95.11 z M168.47,98.43 L168.77,99.48 L169.17,100.58 L169.60,101.53 L170.05,102.32 L170.53,102.97 L171.03,103.47 L171.68,103.95 L172.47,104.40 L173.42,104.83 L174.52,105.23 L175.70,105.53 L176.96,105.73 L178.29,105.83 L179.71,105.83 L180.92,105.79 L181.92,105.71 L182.71,105.58 L183.29,105.42 L183.90,105.29 L184.52,105.21 L185.17,105.17 L185.83,105.17 L186.42,105.21 L186.91,105.29 L187.33,105.42 L187.66,105.59 L188.29,106.20 L189.20,107.27 L190.41,108.79 L191.91,110.76 L193.03,112.33 L193.78,113.50 L194.14,114.28 L194.12,114.66 L193.93,114.98 L193.55,115.24 L193.00,115.45 L192.27,115.60 L191.63,115.68 L191.09,115.68 L190.65,115.60 L190.30,115.45 L189.88,115.19 L189.40,114.81 L188.84,114.33 L188.22,113.73 L187.69,113.27 L187.25,112.95 L186.91,112.76 L186.66,112.70 L186.25,112.86 L185.69,113.23 L184.97,113.81 L184.09,114.59 L183.42,115.35 L182.95,116.08 L182.70,116.77 L182.64,117.44 L182.80,118.11 L183.18,118.80 L183.77,119.48 L184.57,120.18 L185.39,120.80 L186.21,121.35 L187.05,121.83 L187.90,122.23 L188.64,122.54 L189.29,122.75 L189.83,122.87 L190.27,122.90 L190.80,122.86 L191.40,122.76 L192.09,122.59 L192.85,122.35 L193.62,122.06 L194.40,121.72 L195.19,121.31 L195.98,120.86 L196.77,120.55 L197.54,120.40 L198.31,120.40 L199.08,120.55 L199.82,120.78 L200.55,121.09 L201.27,121.48 L201.96,121.96 L202.68,122.22 L203.42,122.26 L204.19,122.10 L204.98,121.72 L205.60,121.37 L206.06,121.04 L206.35,120.73 L206.48,120.44 L206.45,120.04 L206.28,119.55 L205.96,118.96 L205.48,118.27 L205.12,117.58 L204.87,116.92 L204.74,116.27 L204.71,115.63 L204.82,114.85 L205.08,113.92 L205.48,112.86 L206.02,111.65 L206.43,110.38 L206.70,109.07 L206.83,107.71 L206.83,106.29 L206.73,105.02 L206.53,103.89 L206.23,102.90 L205.83,102.05 L205.40,101.29 L204.95,100.61 L204.47,100.03 L203.97,99.53 L203.39,99.05 L202.71,98.60 L201.95,98.17 L201.10,97.77 L200.10,97.46 L198.95,97.24 L197.64,97.11 L196.19,97.06 L194.84,97.07 L193.61,97.13 L192.50,97.25 L191.50,97.41 L190.67,97.51 L190.02,97.54 L189.54,97.50 L189.23,97.39 L188.69,96.99 L187.91,96.31 L186.90,95.35 L185.65,94.10 L184.56,92.90 L183.64,91.76 L182.88,90.66 L182.29,89.62 L181.90,88.79 L181.70,88.17 L181.71,87.75 L181.92,87.54 L182.26,87.42 L182.74,87.38 L183.35,87.44 L184.10,87.57 L184.82,87.82 L185.50,88.19 L186.16,88.67 L186.78,89.27 L187.35,89.71 L187.85,90.01 L188.30,90.16 L188.70,90.16 L189.11,90.04 L189.55,89.80 L190.01,89.44 L190.50,88.95 L190.90,88.40 L191.22,87.77 L191.45,87.08 L191.60,86.31 L191.55,85.53 L191.30,84.72 L190.85,83.90 L190.20,83.05 L189.51,82.36 L188.78,81.84 L188.02,81.48 L187.21,81.29 L186.30,81.16 L185.30,81.08 L184.19,81.06 L182.98,81.11 L181.88,81.17 L180.90,81.27 L180.02,81.39 L179.25,81.54 L178.51,81.52 L177.80,81.32 L177.11,80.94 L176.44,80.39 L175.86,79.95 L175.36,79.64 L174.94,79.44 L174.61,79.35 L174.14,79.43 L173.54,79.68 L172.80,80.08 L171.93,80.65 L171.27,81.15 L170.81,81.58 L170.56,81.94 L170.52,82.23 L170.61,82.68 L170.83,83.27 L171.18,84.03 L171.66,84.93 L172.00,85.67 L172.22,86.25 L172.30,86.66 L172.24,86.91 L172.05,87.25 L171.73,87.69 L171.27,88.22 L170.67,88.84 L170.12,89.58 L169.62,90.44 L169.17,91.42 L168.77,92.52 L168.47,93.57 L168.27,94.58 L168.17,95.54 L168.17,96.46 L168.27,97.42 z M66.79,209.91 L67.21,209.08 L67.48,208.27 L67.61,207.47 L67.60,206.69 L67.45,205.92 L67.09,205.10 L66.51,204.22 L65.72,203.28 L64.72,202.28 L63.89,201.48 L63.22,200.90 L62.73,200.52 L62.39,200.36 L61.67,200.08 L60.57,199.68 L59.08,199.17 L57.21,198.54 L55.50,198.00 L53.96,197.54 L52.60,197.15 L51.40,196.85 L49.62,196.32 L47.24,195.57 L44.28,194.60 L40.72,193.40 L37.27,192.29 L33.93,191.26 L30.68,190.32 L27.54,189.46 L24.57,188.80 L21.77,188.35 L19.14,188.11 L16.69,188.06 L14.64,188.08 L13.01,188.16 L11.79,188.29 L10.98,188.48 L10.28,188.78 L9.68,189.18 L9.17,189.67 L8.77,190.27 L8.47,190.95 L8.27,191.71 L8.17,192.54 L8.17,193.46 L8.22,194.28 L8.32,195.01 L8.48,195.64 L8.69,196.19 L8.93,196.69 L9.21,197.17 L9.52,197.60 L9.87,198.00 L10.36,198.46 L10.98,198.96 L11.75,199.50 L12.65,200.10 L13.87,200.82 L15.40,201.66 L17.25,202.62 L19.42,203.71 L21.45,204.68 L23.33,205.54 L25.08,206.29 L26.69,206.93 L28.53,207.60 L30.59,208.28 L32.88,209.00 L35.39,209.73 L38.02,210.42 L40.76,211.05 L43.61,211.64 L46.56,212.19 L49.46,212.58 L52.29,212.83 L55.06,212.94 L57.77,212.89 L60.07,212.76 L61.97,212.53 L63.46,212.21 L64.54,211.79 L65.45,211.27 L66.20,210.64 z M244.25,157.50 L243.75,156.50 L243.25,155.56 L242.75,154.69 L242.25,153.88 L241.75,153.12 L241.23,152.27 L240.69,151.31 L240.13,150.25 L239.54,149.08 L239.02,147.98 L238.56,146.94 L238.17,145.96 L237.83,145.04 L237.41,144.02 L236.91,142.90 L236.33,141.67 L235.67,140.33 L235.00,138.88 L234.32,137.31 L233.63,135.62 L232.94,133.81 L232.31,132.36 L231.75,131.27 L231.27,130.53 L230.85,130.14 L230.21,130.00 L229.35,130.11 L228.27,130.48 L226.96,131.09 L225.79,131.67 L224.76,132.22 L223.88,132.75 L223.12,133.25 L221.77,134.02 L219.81,135.06 L217.25,136.37 L214.08,137.96 L211.48,139.23 L209.44,140.19 L207.96,140.83 L207.04,141.17 L206.15,141.52 L205.27,141.90 L204.42,142.29 L203.58,142.71 L202.46,143.21 L201.04,143.79 L199.33,144.45 L197.33,145.20 L195.14,146.00 L192.75,146.85 L190.17,147.75 L187.39,148.69 L185.27,149.44 L183.81,150.01 L183.00,150.38 L182.85,150.56 L182.86,151.04 L183.04,151.82 L183.39,152.90 L183.90,154.27 L184.51,155.76 L185.23,157.36 L186.04,159.08 L186.96,160.92 L187.73,162.52 L188.35,163.90 L188.83,165.04 L189.17,165.96 L189.59,166.98 L190.09,168.10 L190.67,169.33 L191.33,170.67 L191.91,171.90 L192.41,173.02 L192.83,174.04 L193.17,174.96 L193.59,175.98 L194.09,177.10 L194.67,178.33 L195.33,179.67 L195.91,180.90 L196.41,182.02 L196.83,183.04 L197.17,183.96 L197.51,184.72 L197.85,185.34 L198.19,185.81 L198.54,186.12 L198.88,186.35 L199.21,186.47 L199.54,186.50 L199.85,186.43 L200.38,186.24 L201.13,185.91 L202.08,185.46 L203.25,184.87 L204.31,184.31 L205.27,183.77 L206.12,183.25 L206.88,182.75 L208.10,182.04 L209.81,181.13 L212.00,180.00 L214.67,178.67 L217.29,177.42 L219.88,176.25 L222.42,175.17 L224.92,174.17 L227.54,173.17 L230.28,172.16 L233.15,171.15 L236.13,170.13 L238.88,169.26 L241.38,168.53 L243.65,167.94 L245.67,167.50 L247.21,167.05 L248.26,166.60 L248.82,166.14 L248.89,165.69 L248.70,164.97 L248.23,163.99 L247.50,162.75 L246.50,161.25 L245.62,159.88 L244.88,158.62 z M93.67,48.33 L92.33,47.67 L90.68,46.95 L88.70,46.18 L86.39,45.36 L83.77,44.48 L81.49,43.76 L79.55,43.20 L77.96,42.79 L76.71,42.54 L75.54,42.36 L74.46,42.23 L73.46,42.17 L72.54,42.17 L71.51,42.26 L70.37,42.45 L69.11,42.73 L67.73,43.11 L66.46,43.52 L65.28,43.97 L64.21,44.46 L63.24,44.99 L62.13,45.76 L60.89,46.77 L59.53,48.03 L58.03,49.53 L56.48,51.29 L54.88,53.32 L53.23,55.61 L51.54,58.17 L49.69,61.25 L47.67,64.86 L45.50,69.00 L43.17,73.67 L41.23,77.61 L39.69,80.82 L38.55,83.30 L37.80,85.05 L37.04,86.92 L36.28,88.91 L35.52,91.02 L34.76,93.26 L34.09,95.28 L33.53,97.09 L33.07,98.69 L32.71,100.08 L32.42,101.35 L32.20,102.51 L32.04,103.54 L31.96,104.46 L31.85,105.29 L31.73,106.04 L31.58,106.71 L31.42,107.29 L31.28,108.09 L31.18,109.12 L31.11,110.36 L31.06,111.81 L31.08,113.17 L31.17,114.42 L31.31,115.56 L31.52,116.61 L31.63,117.64 L31.66,118.66 L31.58,119.67 L31.42,120.67 L31.27,121.90 L31.15,123.36 L31.04,125.04 L30.96,126.96 L30.85,128.54 L30.73,129.79 L30.58,130.71 L30.42,131.29 L30.23,132.09 L30.03,133.10 L29.82,134.32 L29.58,135.75 L29.52,136.95 L29.62,137.93 L29.89,138.68 L30.34,139.21 L30.94,139.71 L31.70,140.18 L32.62,140.63 L33.71,141.04 L34.73,141.46 L35.69,141.88 L36.58,142.29 L37.42,142.71 L38.36,143.14 L39.40,143.60 L40.55,144.08 L41.80,144.58 L43.67,145.27 L46.16,146.15 L49.27,147.23 L53.01,148.49 L56.90,149.72 L60.97,150.91 L65.19,152.06 L69.58,153.17 L73.23,154.00 L76.13,154.55 L78.29,154.83 L79.71,154.83 L81.18,154.68 L82.70,154.36 L84.27,153.89 L85.89,153.27 L87.28,152.72 L88.42,152.24 L89.33,151.83 L90.00,151.50 L91.14,150.83 L92.75,149.81 L94.83,148.46 L97.39,146.77 L99.47,145.34 L101.06,144.19 L102.18,143.31 L102.82,142.69 L103.45,142.14 L104.08,141.64 L104.69,141.19 L105.31,140.81 L106.27,140.02 L107.57,138.82 L109.22,137.22 L111.22,135.22 L113.09,133.21 L114.81,131.18 L116.39,129.14 L117.83,127.08 L119.09,125.16 L120.17,123.36 L121.06,121.69 L121.77,120.14 L122.30,118.57 L122.65,116.97 L122.83,115.33 L122.83,113.67 L122.78,112.28 L122.68,111.18 L122.52,110.36 L122.31,109.81 L122.04,109.27 L121.72,108.72 L121.33,108.17 L120.89,107.61 L120.40,107.10 L119.86,106.64 L119.27,106.23 L118.63,105.87 L118.07,105.51 L117.59,105.16 L117.19,104.81 L116.88,104.46 L116.92,103.77 L117.34,102.72 L118.12,101.34 L119.27,99.60 L120.35,97.88 L121.34,96.18 L122.25,94.50 L123.08,92.83 L123.86,91.05 L124.59,89.15 L125.27,87.14 L125.89,85.02 L126.37,82.94 L126.69,80.91 L126.86,78.93 L126.88,76.99 L126.78,75.22 L126.55,73.62 L126.19,72.18 L125.72,70.91 L125.25,69.81 L124.80,68.89 L124.36,68.14 L123.93,67.57 L123.35,66.90 L122.63,66.12 L121.76,65.24 L120.75,64.25 L119.35,63.09 L117.56,61.75 L115.39,60.23 L112.83,58.54 L110.54,57.08 L108.51,55.86 L106.75,54.88 L105.25,54.12 L103.94,53.44 L102.81,52.81 L101.88,52.25 L101.12,51.75 L100.29,51.27 L99.38,50.81 L98.38,50.37 L97.29,49.96 L96.15,49.48 L94.94,48.94 z M222.48,178.73 L221.10,179.35 L219.96,179.83 L219.04,180.17 L218.02,180.59 L216.90,181.09 L215.67,181.67 L214.33,182.33 L213.10,182.91 L211.98,183.41 L210.96,183.83 L210.04,184.17 L209.06,184.56 L208.02,185.02 L206.92,185.54 L205.75,186.13 L204.61,186.80 L203.50,187.56 L202.42,188.42 L201.36,189.36 L200.48,190.23 L199.78,191.03 L199.26,191.76 L198.91,192.41 L198.64,193.12 L198.44,193.87 L198.31,194.68 L198.25,195.54 L198.29,196.35 L198.43,197.12 L198.67,197.83 L199.00,198.50 L199.42,199.08 L199.92,199.58 L200.50,200.00 L201.17,200.33 L201.97,200.59 L202.91,200.78 L203.98,200.89 L205.19,200.94 L206.52,200.90 L207.98,200.77 L209.56,200.56 L211.27,200.27 L212.90,199.96 L214.45,199.63 L215.92,199.29 L217.31,198.93 L218.72,198.53 L220.16,198.10 L221.62,197.62 L223.10,197.10 L224.84,196.47 L226.83,195.71 L229.08,194.83 L231.58,193.83 L234.12,192.75 L236.71,191.58 L239.33,190.33 L242.00,189.00 L244.45,187.70 L246.69,186.44 L248.71,185.21 L250.52,184.02 L251.99,182.99 L253.15,182.15 L253.97,181.47 L254.47,180.97 L254.90,180.40 L255.24,179.74 L255.52,179.02 L255.71,178.21 L255.84,177.24 L255.92,176.11 L255.94,174.81 L255.89,173.36 L255.74,172.14 L255.47,171.16 L255.08,170.42 L254.58,169.92 L253.85,169.54 L252.89,169.29 L251.71,169.17 L250.29,169.17 L248.88,169.26 L247.48,169.44 L246.08,169.71 L244.69,170.07 L243.09,170.53 L241.28,171.09 L239.26,171.76 L237.02,172.52 L235.03,173.22 L233.29,173.85 L231.80,174.42 L230.55,174.92 L229.15,175.52 L227.61,176.23 L225.92,177.04 L224.08,177.96 z M71.51,96.56 L71.36,97.26 L71.13,98.10 L70.83,99.08 L70.46,100.21 L70.06,101.16 L69.64,101.93 L69.21,102.53 L68.75,102.96 L68.29,103.11 L67.82,102.98 L67.35,102.56 L66.88,101.87 L66.52,101.12 L66.29,100.32 L66.17,99.46 L66.17,98.54 L66.27,97.71 L66.47,96.95 L66.77,96.27 L67.17,95.67 L67.66,95.19 L68.24,94.82 L68.90,94.57 L69.65,94.44 L70.27,94.39 L70.76,94.44 L71.12,94.58 L71.36,94.82 L71.51,95.13 L71.59,95.53 L71.59,96.00 z M208.60,195.64 L207.64,195.77 L206.83,195.83 L206.17,195.83 L205.59,195.79 L205.10,195.72 L204.69,195.60 L204.38,195.45 L204.14,195.25 L203.98,194.99 L203.90,194.68 L203.90,194.32 L204.16,193.87 L204.67,193.35 L205.44,192.73 L206.46,192.04 L208.40,190.94 L211.24,189.42 L215.00,187.50 L219.67,185.17 L223.48,183.29 L226.44,181.88 L228.55,180.92 L229.80,180.42 L231.29,179.85 L233.03,179.22 L235.02,178.52 L237.26,177.76 L239.28,177.09 L241.09,176.53 L242.69,176.07 L244.08,175.71 L245.41,175.44 L246.68,175.27 L247.89,175.19 L249.04,175.21 L249.93,175.34 L250.56,175.59 L250.92,175.95 L251.01,176.44 L250.84,176.99 L250.40,177.62 L249.69,178.31 L248.70,179.08 L247.70,179.82 L246.68,180.55 L245.64,181.27 L244.58,181.96 L243.25,182.75 L241.64,183.64 L239.75,184.62 L237.58,185.71 L235.73,186.60 L234.19,187.31 L232.96,187.83 L232.04,188.17 L231.15,188.52 L230.27,188.90 L229.42,189.29 L228.58,189.71 L227.40,190.21 L225.86,190.80 L223.98,191.48 L221.74,192.24 L219.72,192.91 L217.91,193.47 L216.31,193.93 L214.92,194.29 L213.56,194.62 L212.24,194.93 L210.96,195.21 L209.71,195.46 z M226.85,117.02 L226.45,115.68 L226.07,114.31 L225.71,112.92 L225.42,111.58 L225.20,110.30 L225.04,109.08 L224.96,107.92 L224.85,106.90 L224.73,106.02 L224.58,105.29 L224.42,104.71 L224.27,103.85 L224.15,102.73 L224.04,101.33 L223.96,99.67 L223.83,98.11 L223.67,96.65 L223.46,95.29 L223.21,94.04 L222.93,92.76 L222.62,91.44 L222.29,90.08 L221.93,88.69 L221.53,87.28 L221.10,85.84 L220.62,84.38 L220.10,82.90 L219.38,81.12 L218.46,79.04 L217.33,76.67 L216.00,74.00 L214.87,71.81 L213.96,70.10 L213.25,68.88 L212.75,68.12 L212.19,67.19 L211.56,66.06 L210.88,64.75 L210.12,63.25 L209.01,61.30 L207.54,58.90 L205.71,56.04 L203.52,52.73 L201.68,50.01 L200.21,47.85 L199.10,46.28 L198.35,45.28 L197.29,44.03 L195.91,42.53 L194.22,40.78 L192.22,38.78 L190.48,37.14 L188.99,35.88 L187.76,34.99 L186.79,34.46 L185.78,33.97 L184.73,33.52 L183.64,33.11 L182.52,32.73 L181.32,32.45 L180.05,32.26 L178.71,32.17 L177.29,32.17 L175.89,32.26 L174.49,32.45 L173.11,32.73 L171.73,33.11 L170.03,33.72 L168.01,34.58 L165.67,35.67 L163.00,37.00 L160.69,38.19 L158.73,39.23 L157.12,40.12 L155.88,40.88 L154.30,41.86 L152.40,43.08 L150.17,44.54 L147.61,46.23 L145.44,47.69 L143.66,48.91 L142.28,49.90 L141.28,50.65 L140.37,51.37 L139.55,52.05 L138.82,52.69 L138.18,53.31 L137.55,53.86 L136.92,54.36 L136.31,54.81 L135.69,55.19 L135.05,55.67 L134.37,56.24 L133.65,56.90 L132.90,57.65 L132.16,58.48 L131.44,59.38 L130.73,60.36 L130.04,61.42 L129.41,62.59 L128.83,63.89 L128.32,65.31 L127.86,66.85 L127.59,68.35 L127.48,69.83 L127.55,71.28 L127.80,72.70 L128.08,74.05 L128.39,75.32 L128.73,76.52 L129.11,77.64 L129.53,78.78 L130.01,79.92 L130.54,81.08 L131.13,82.25 L131.86,83.58 L132.75,85.06 L133.79,86.71 L134.98,88.52 L136.10,90.09 L137.12,91.44 L138.07,92.56 L138.93,93.44 L139.65,94.26 L140.22,95.00 L140.66,95.67 L140.94,96.27 L141.13,96.77 L141.21,97.17 L141.19,97.48 L141.06,97.69 L140.78,97.96 L140.34,98.29 L139.74,98.69 L138.98,99.15 L138.24,99.83 L137.53,100.72 L136.84,101.84 L136.17,103.17 L135.67,104.27 L135.34,105.15 L135.17,105.79 L135.17,106.21 L135.26,106.80 L135.45,107.57 L135.73,108.52 L136.11,109.64 L136.58,110.85 L137.16,112.15 L137.83,113.54 L138.61,115.01 L139.88,116.81 L141.64,118.92 L143.90,121.35 L146.65,124.10 L148.96,126.35 L150.84,128.10 L152.28,129.35 L153.28,130.10 L154.48,130.96 L155.88,131.93 L157.48,133.02 L159.29,134.21 L161.06,135.31 L162.80,136.33 L164.50,137.25 L166.17,138.08 L167.93,138.88 L169.80,139.64 L171.75,140.37 L173.81,141.06 L175.43,141.63 L176.62,142.07 L177.37,142.38 L177.69,142.56 L178.03,142.85 L178.40,143.23 L178.79,143.71 L179.21,144.29 L179.60,144.76 L179.97,145.13 L180.31,145.39 L180.63,145.54 L181.01,145.63 L181.46,145.66 L181.96,145.63 L182.53,145.53 L183.90,145.15 L186.05,144.47 L188.99,143.49 L192.73,142.23 L195.74,141.18 L198.02,140.34 L199.58,139.71 L200.42,139.29 L201.27,138.90 L202.15,138.52 L203.04,138.17 L203.96,137.83 L205.69,137.06 L208.23,135.85 L211.58,134.21 L215.75,132.12 L219.26,130.32 L222.11,128.80 L224.31,127.56 L225.85,126.60 L227.04,125.80 L227.89,125.16 L228.39,124.69 L228.54,124.37 L228.63,123.99 L228.66,123.54 L228.63,123.04 L228.53,122.47 L228.35,121.71 L228.08,120.77 L227.72,119.65 L227.28,118.35 z M67.54,125.50 L67.27,125.43 L67.06,125.21 L66.89,124.85 L66.78,124.36 L66.82,123.61 L67.02,122.62 L67.38,121.38 L67.90,119.90 L68.37,118.70 L68.80,117.80 L69.19,117.19 L69.54,116.88 L69.87,116.66 L70.18,116.56 L70.47,116.56 L70.75,116.67 L71.06,116.96 L71.41,117.44 L71.79,118.09 L72.21,118.92 L72.48,119.73 L72.60,120.52 L72.58,121.29 L72.41,122.04 L72.05,122.74 L71.49,123.38 L70.72,123.97 L69.77,124.52 L68.97,124.94 L68.33,125.25 L67.85,125.43 z M81.33,81.67 L82.67,82.33 L83.78,82.91 L84.67,83.39 L85.33,83.79 L85.78,84.10 L86.13,84.41 L86.39,84.73 L86.56,85.06 L86.65,85.39 L86.62,85.84 L86.48,86.39 L86.23,87.06 L85.87,87.84 L85.63,88.49 L85.51,89.04 L85.50,89.46 L85.61,89.77 L85.97,90.28 L86.58,91.00 L87.44,91.93 L88.56,93.07 L89.56,94.19 L90.47,95.28 L91.27,96.36 L91.96,97.42 L92.59,98.53 L93.17,99.71 L93.69,100.94 L94.14,102.23 L94.55,103.51 L94.90,104.78 L95.21,106.04 L95.46,107.29 L95.64,108.40 L95.77,109.36 L95.83,110.17 L95.83,110.83 L95.74,111.74 L95.55,112.88 L95.27,114.27 L94.89,115.89 L94.35,117.60 L93.65,119.40 L92.79,121.29 L91.76,123.26 L90.74,124.99 L89.73,126.48 L88.72,127.72 L87.72,128.72 L86.61,129.67 L85.37,130.56 L84.01,131.39 L82.54,132.17 L81.15,132.84 L79.85,133.42 L78.64,133.89 L77.52,134.27 L76.37,134.56 L75.21,134.77 L74.02,134.89 L72.81,134.94 L71.75,135.00 L70.84,135.09 L70.09,135.21 L69.48,135.35 L68.88,135.69 L68.29,136.23 L67.72,136.97 L67.17,137.92 L66.65,138.71 L66.18,139.36 L65.74,139.87 L65.35,140.23 L64.96,140.50 L64.57,140.69 L64.17,140.79 L63.77,140.81 L63.00,140.66 L61.86,140.36 L60.36,139.89 L58.48,139.27 L56.84,138.67 L55.43,138.09 L54.26,137.54 L53.31,137.01 L52.59,136.56 L52.07,136.17 L51.77,135.85 L51.69,135.60 L51.69,135.25 L51.78,134.80 L51.95,134.24 L52.22,133.59 L52.39,132.92 L52.47,132.24 L52.46,131.55 L52.37,130.84 L52.02,130.02 L51.41,129.10 L50.56,128.07 L49.44,126.93 L48.44,125.81 L47.53,124.72 L46.73,123.64 L46.04,122.58 L45.41,121.47 L44.83,120.29 L44.31,119.06 L43.86,117.77 L43.50,116.69 L43.25,115.81 L43.11,115.14 L43.06,114.69 L43.04,113.67 L43.04,112.08 L43.06,109.94 L43.11,107.23 L43.23,104.92 L43.44,103.00 L43.73,101.48 L44.11,100.36 L44.52,99.27 L44.97,98.22 L45.46,97.21 L45.99,96.24 L46.61,95.24 L47.34,94.22 L48.17,93.17 L49.10,92.10 L50.01,91.13 L50.88,90.26 L51.73,89.48 L52.55,88.80 L53.40,88.15 L54.30,87.55 L55.24,86.99 L56.21,86.46 L57.28,85.97 L58.46,85.52 L59.73,85.11 L61.11,84.73 L62.55,84.43 L64.07,84.20 L65.67,84.04 L67.33,83.96 L68.67,83.85 L69.66,83.73 L70.33,83.58 L70.66,83.41 L71.06,83.06 L71.53,82.53 L72.06,81.81 L72.66,80.91 L73.19,80.22 L73.66,79.72 L74.06,79.44 L74.39,79.35 L74.92,79.38 L75.64,79.52 L76.56,79.77 L77.67,80.13 L78.83,80.57 L80.05,81.08 z M221.02,172.52 L220.21,172.71 L219.30,172.84 L218.30,172.92 L217.19,172.94 L215.98,172.89 L214.74,172.70 L213.47,172.34 L212.17,171.83 L210.84,171.16 L209.67,170.40 L208.66,169.53 L207.81,168.56 L207.13,167.49 L206.56,166.50 L206.10,165.59 L205.75,164.75 L205.52,163.98 L205.34,163.18 L205.23,162.34 L205.17,161.46 L205.17,160.54 L205.33,159.52 L205.66,158.39 L206.15,157.15 L206.80,155.80 L207.41,154.66 L207.99,153.74 L208.53,153.03 L209.03,152.53 L209.74,151.99 L210.66,151.41 L211.80,150.80 L213.15,150.15 L214.39,149.66 L215.52,149.33 L216.54,149.17 L217.46,149.17 L218.42,149.27 L219.43,149.47 L220.48,149.77 L221.58,150.17 L222.64,150.74 L223.66,151.47 L224.64,152.36 L225.58,153.42 L226.41,154.47 L227.11,155.52 L227.69,156.56 L228.14,157.61 L228.50,158.56 L228.75,159.44 L228.89,160.23 L228.94,160.94 L228.93,161.68 L228.86,162.45 L228.75,163.25 L228.58,164.08 L228.32,164.95 L227.98,165.85 L227.54,166.79 L227.01,167.76 L226.37,168.68 L225.61,169.54 L224.72,170.35 L223.72,171.10 L222.77,171.71 L221.87,172.18 z M21.00,193.14 L23.15,193.57 L25.42,194.08 L27.81,194.69 L30.04,195.28 L32.11,195.83 L34.02,196.36 L35.77,196.86 L38.39,197.67 L41.88,198.81 L46.24,200.26 L51.48,202.02 L55.48,203.43 L58.26,204.49 L59.81,205.19 L60.12,205.54 L60.34,205.87 L60.44,206.18 L60.44,206.47 L60.33,206.75 L60.05,207.01 L59.60,207.25 L58.98,207.48 L58.19,207.69 L57.22,207.84 L56.07,207.95 L54.75,208.00 L53.25,208.00 L51.70,207.93 L50.09,207.78 L48.44,207.56 L46.73,207.27 L45.04,206.96 L43.37,206.63 L41.71,206.29 L40.07,205.93 L38.09,205.41 L35.78,204.72 L33.13,203.87 L30.15,202.85 L27.49,201.88 L25.17,200.96 L23.17,200.08 L21.50,199.25 L19.99,198.45 L18.62,197.69 L17.42,196.96 L16.36,196.27 L15.48,195.61 L14.78,194.99 L14.26,194.41 L13.92,193.87 L13.71,193.42 L13.64,193.04 L13.71,192.75 L13.92,192.54 L14.55,192.45 L15.60,192.46 L17.08,192.58 L18.98,192.82 z M44.58,163.27 L45.54,163.17 L46.46,163.17 L47.42,163.27 L48.43,163.47 L49.48,163.77 L50.58,164.17 L51.59,164.66 L52.51,165.24 L53.35,165.90 L54.10,166.65 L54.79,167.46 L55.43,168.32 L56.01,169.24 L56.54,170.21 L56.98,171.15 L57.32,172.05 L57.58,172.92 L57.75,173.75 L57.86,174.62 L57.93,175.51 L57.94,176.44 L57.89,177.39 L57.81,178.25 L57.69,179.00 L57.52,179.64 L57.31,180.19 L57.05,180.74 L56.73,181.29 L56.36,181.86 L55.93,182.43 L55.42,183.04 L54.82,183.69 L54.14,184.39 L53.37,185.12 L52.59,185.77 L51.78,186.34 L50.95,186.83 L50.10,187.23 L49.11,187.53 L47.98,187.73 L46.71,187.83 L45.29,187.83 L44.02,187.73 L42.89,187.53 L41.90,187.23 L41.05,186.83 L40.16,186.28 L39.24,185.57 L38.28,184.72 L37.28,183.72 L36.43,182.76 L35.72,181.84 L35.17,180.95 L34.77,180.10 L34.47,179.05 L34.27,177.79 L34.17,176.33 L34.17,174.67 L34.27,173.21 L34.47,171.95 L34.77,170.90 L35.17,170.05 L35.72,169.16 L36.43,168.24 L37.28,167.28 L38.28,166.28 L39.30,165.43 L40.35,164.72 L41.42,164.17 L42.52,163.77 L43.57,163.47 z M179.55,99.63 L178.85,99.54 L178.17,99.33 L177.50,99.00 L176.92,98.58 L176.42,98.08 L176.00,97.50 L175.67,96.83 L175.42,96.17 L175.25,95.50 L175.17,94.83 L175.17,94.17 L175.28,93.55 L175.51,92.99 L175.86,92.48 L176.31,92.02 L176.80,91.77 L177.30,91.72 L177.83,91.88 L178.39,92.24 L178.98,92.77 L179.61,93.48 L180.27,94.36 L180.96,95.42 L181.49,96.35 L181.85,97.15 L182.04,97.83 L182.06,98.39 L181.90,98.85 L181.54,99.20 L181.00,99.45 L180.27,99.60 z M197.91,104.21 L198.63,104.68 L199.22,105.21 L199.70,105.80 L200.07,106.43 L200.32,107.10 L200.47,107.78 L200.50,108.49 L200.43,109.23 L200.30,109.86 L200.09,110.38 L199.81,110.81 L199.46,111.12 L199.13,111.34 L198.82,111.44 L198.53,111.44 L198.25,111.33 L197.80,110.92 L197.19,110.22 L196.40,109.23 L195.44,107.94 L194.68,106.85 L194.13,105.96 L193.77,105.27 L193.62,104.79 L193.66,104.37 L193.89,104.02 L194.31,103.73 L194.92,103.50 L195.58,103.44 L196.30,103.54 L197.08,103.79 z" fill="black" stroke-width="0.000000" stroke="none" /></svg>