<?xml version="1.0" encoding="utf-8" ?><svg xmlns="http://www.w3.org/2000/svg" version="1.1" viewBox="0.000000 0.000000 2048.000000 2014.000000"><path d="M462.546444,1888.546444 L461.979414,1936.020620 L474.479878,1967.520122 L507.494735,1998.505265 L552.597762,2011.402238 L588.000000,2012.000000 L1652.000000,2012.000000 L1690.991346,2010.991346 L1729.887004,1997.887004 L1760.936347,1968.936347 L1772.959712,1940.959712 L1775.425140,1898.574759 L1748.567250,1687.432750 L1738.254439,1585.745527 L1718.574760,1343.425245 L1708.003199,1119.996801 L1706.003199,932.003199 L1708.567450,834.567450 L1725.758629,695.758629 L1745.536420,635.536420 L1785.331898,587.331898 L1828.334273,572.334374 L1862.510736,573.489264 L1913.570094,590.429906 L1950.791033,611.208967 L2033.625187,668.348783 L2047.909789,659.877475 L2047.893683,62.106317 L2034.738694,45.360991 L1789.858077,6.663967 L1735.996784,0.003216 L1482.005252,0.005252 L1456.742383,10.567450 L1440.414796,100.414796 L1407.048036,175.048036 L1368.996704,226.996704 L1310.745040,276.745040 L1255.341752,307.341752 L1167.872168,331.599907 L1108.246377,334.604411 L1010.907142,317.092858 L935.012554,280.987446 L890.753903,247.246097 L862.763450,217.236550 L827.914149,166.085851 L805.970116,120.029884 L778.646360,3.353640 L757.994548,0.005452 L482.704856,0.704856 L262.926661,34.955610 L62.007122,68.007122 L12.806121,102.806121 L3.176454,125.176454 L5.623593,257.510903 L76.171578,437.828422 L168.801041,681.162495 L177.600203,689.841619 L292.559927,608.559927 L364.122125,576.122125 L432.971360,577.028640 L457.417656,590.582344 L487.484891,624.515109 L501.956615,656.043385 L523.046200,756.953800 L529.696207,846.303793 L529.996801,1073.996801 L525.863869,1199.863869 L511.425394,1431.425394 L497.735794,1593.750916 L479.432751,1759.432751 z" fill="#dd4488" stroke-width="1.000000" stroke="none" /></svg>