<?xml version="1.0" encoding="utf-8" ?><svg xmlns="http://www.w3.org/2000/svg" version="1.1" viewBox="0.000000 0.000000 2688.000000 2688.000000"><path d="M1870.245469,2056.321771 L1879.165321,2035.492366 L1890.912002,1881.613530 L1889.325265,1870.314091 L1878.460020,1861.529383 L1863.882485,1860.117383 L1606.074332,1859.925668 L1569.646062,1858.353941 L1519.540959,1858.820525 L1510.031112,1867.038117 L1515.292593,1897.944796 L1513.114933,1917.127112 L1502.674580,1940.674580 L1487.142726,1957.142726 L1467.353652,1969.353652 L1451.811154,1973.811154 L1423.919520,1975.919520 L1300.183207,1975.816793 L1269.503443,1970.496557 L1236.467738,1947.532262 L1220.141069,1919.858931 L1213.945239,1862.054764 L1206.786987,1853.214040 L1171.051741,1851.055753 L1119.989347,1855.989347 L846.117453,1856.117445 L831.535399,1857.533965 L820.549896,1866.438930 L818.706746,1877.994783 L826.762056,2007.237944 L831.518182,2048.481818 L848.755610,2061.244390 L888.000054,2061.999946 L1445.960630,2061.962937 L1540.001219,2060.001088 L1849.883184,2059.883413 z M1309.534682,682.465318 L1318.494413,693.505587 L1332.247233,695.752767 L1395.808219,695.808219 L1409.945115,693.945115 L1419.945115,683.945115 L1421.808219,669.808219 L1421.992105,580.007895 L1420.074332,519.925668 L1419.948206,332.051794 L1414.386556,305.613444 L1395.752767,300.247233 L1332.247233,300.247233 L1318.494413,302.494413 L1309.534682,313.534682 L1308.000062,356.000062 L1308.117449,667.882551 z M736.951252,728.072829 L745.516509,731.422910 L765.273712,723.253392 L822.084059,686.180891 L832.465010,674.609715 L829.222308,664.150981 L786.765794,609.234206 L639.438582,428.561418 L595.298134,370.701869 L572.339392,344.752955 L561.068753,342.921044 L549.409654,349.474127 L488.391051,397.917452 L485.330751,415.410600 L534.844077,477.155923 L582.791212,539.208788 L701.002423,684.997577 z M1169.238105,1804.760190 L1195.528178,1805.501759 L1208.162157,1802.161833 L1214.465319,1792.465319 L1216.732921,1736.732921 L1225.257498,1707.257498 L1251.548736,1681.548736 L1273.350345,1671.350345 L1314.009181,1668.009181 L1425.919518,1668.080482 L1453.805706,1670.194294 L1477.321824,1678.678176 L1494.862067,1691.137933 L1512.627007,1723.372760 L1517.121737,1757.891141 L1512.292133,1792.738208 L1536.099521,1797.919631 L1839.999946,1797.999946 L1882.696240,1796.696240 L1892.236441,1792.236441 L1898.896228,1772.896228 L1902.687003,1714.845956 L1887.992657,1694.007113 L1844.102546,1669.897454 L1793.084359,1636.915641 L1754.400103,1607.599897 L1731.693452,1602.306548 L1680.000000,1602.000000 L978.009352,1602.009352 L947.424998,1603.424998 L935.034211,1607.034211 L893.145021,1635.145021 L814.402375,1694.398293 L806.873279,1712.421575 L811.069812,1778.930188 L815.390582,1790.609418 L840.115407,1797.884593 L1113.990891,1798.009109 L1144.630513,1799.369487 z M1295.993941,1920.006059 L1326.093242,1923.906758 L1421.724698,1923.724698 L1446.572643,1916.572643 L1453.946033,1903.946033 L1455.933591,1881.933591 L1455.825301,1770.174699 L1451.084693,1742.915307 L1443.726758,1734.273242 L1417.778814,1728.221186 L1332.024857,1728.024857 L1303.929463,1729.929463 L1292.286215,1734.286215 L1278.406765,1750.406765 L1274.123457,1778.123457 L1274.008814,1863.991186 L1275.661113,1896.338887 L1279.962698,1908.037302 z M496.914115,1901.068694 L470.935908,1841.088240 L459.550103,1830.006657 L446.638451,1831.153291 L418.529053,1846.529055 L376.928424,1872.928424 L119.302036,2027.187127 L108.224830,2036.897127 L112.146424,2054.031508 L153.159698,2122.779402 L169.701948,2134.669391 L178.988433,2130.683720 L293.805157,2061.805157 L415.031807,1985.031807 L488.925268,1940.945633 L502.505546,1922.495861 z M1401.473859,1056.526272 L1364.068747,1049.126642 L1334.045995,1054.047444 L1315.965802,1061.965802 L1291.870557,1081.870557 L1277.452685,1115.452685 L1273.328244,1137.328244 L1266.201418,1148.201418 L1245.882666,1151.882666 L796.000079,1151.999956 L753.969135,1150.899771 L745.065407,1140.703923 L751.099566,1117.096427 L797.883976,999.883976 L810.478696,974.478699 L823.714929,965.719135 L864.657751,966.933216 L870.930216,985.408893 L845.014390,1066.910802 L844.562015,1087.335127 L851.761731,1090.692368 L894.000066,1091.999942 L1191.916202,1091.916202 L1218.349816,1086.349816 L1235.099190,1057.099190 L1260.894021,1022.894021 L1298.701836,1000.701836 L1332.909481,992.909710 L1380.957140,991.068102 L1433.708493,1000.291507 L1463.507968,1014.492032 L1489.265707,1038.734293 L1517.785002,1086.214998 L1544.093213,1091.906787 L1845.919448,1091.936841 L1866.804499,1089.808854 L1873.051918,1080.329966 L1824.374217,983.860681 L1827.127091,965.861735 L1869.483083,964.517171 L1889.381302,972.618698 L1898.245907,987.754093 L1961.192728,1126.739863 L1963.579384,1146.744606 L1954.421215,1152.509422 L1911.999938,1153.999938 L1522.000040,1153.999960 L1478.884346,1153.115654 L1466.574415,1149.425585 L1455.439153,1132.560847 L1446.730013,1099.269987 L1438.370097,1083.629903 L1415.913726,1064.086274 z M2157.093788,916.266781 L2156.760538,935.571136 L2203.975177,1003.838124 L2216.009359,1013.018998 L2234.184518,1006.138590 L2345.625831,935.625831 L2372.084498,920.084498 L2555.367903,805.368940 L2577.282049,792.837998 L2580.007186,783.776950 L2531.553798,704.506232 L2512.852644,694.648782 L2446.821681,734.821681 L2207.937798,883.937798 z M2441.000000,2153.000000 L2441.000000,2153.000000 L2441.000000,2153.000000 L2441.000000,2153.000000 z M492.465318,1468.465318 L502.161995,1462.161995 L505.882551,1441.882551 L505.752767,1378.247233 L503.505587,1364.494413 L492.465318,1355.534682 L449.999938,1354.000062 L118.000062,1354.000062 L75.534682,1355.534682 L64.494413,1364.494413 L62.247233,1378.247233 L62.117449,1441.882551 L65.838005,1462.161995 L75.534682,1468.465318 L118.000062,1469.999938 L449.999938,1469.999938 z M659.035467,2084.964533 L666.646862,2195.353138 L672.002335,2221.997665 L686.755610,2229.244390 L734.000003,2229.999997 L2011.979553,2229.979684 L2042.750011,2225.109220 L2049.652973,2202.945094 L2053.650706,2101.652140 L2058.134602,1952.134602 L2063.215930,1869.215930 L2070.643529,1772.643529 L2080.553748,1657.623868 L2078.397287,1645.237183 L2066.591944,1633.403970 L1839.899225,1518.512866 L1834.864508,1501.868289 L1906.840598,1396.840598 L1990.574473,1272.574473 L2040.696252,1200.696252 L2071.470278,1151.879095 L2074.498787,1132.543354 L2050.008023,1075.991977 L2015.171807,994.828193 L1961.893996,874.106004 L1954.107356,865.892644 L1937.680100,862.319900 L1893.999998,862.000002 L804.000003,862.000003 L760.377049,862.377049 L746.886085,864.886085 L732.459923,882.459923 L675.484484,1019.484484 L632.666996,1125.590017 L632.664632,1139.027377 L651.935176,1176.064826 L724.214018,1285.785982 L736.952698,1307.047302 L784.655306,1377.344694 L798.792008,1401.207992 L846.894620,1473.105377 L863.404056,1500.062403 L865.979469,1512.709311 L858.247967,1520.455461 L792.118739,1556.118739 L642.664385,1632.660302 L634.024656,1639.913620 L629.430588,1662.954422 L642.393730,1857.606304 z M2249.090797,1843.434182 L2212.676236,1910.614246 L2208.065639,1931.764567 L2213.525988,1940.672770 L2246.690773,1967.309227 L2341.292404,2038.707596 L2356.982632,2049.017368 L2438.002758,2107.997242 L2540.285051,2179.616221 L2555.887662,2185.523571 L2563.998744,2181.315284 L2582.452988,2148.452987 L2602.335200,2107.019858 L2599.679010,2087.884587 L2582.722696,2073.277037 L2442.942676,1969.057324 L2339.158548,1890.841452 L2272.371034,1841.845910 L2257.571570,1837.151411 z M115.810349,816.645001 L241.523398,882.476602 L274.068531,897.931469 L314.270604,919.729396 L406.410068,965.589932 L503.304301,1015.403128 L519.067925,1010.606269 L565.046143,939.297020 L568.745803,924.038605 L561.199747,918.403203 L443.136571,854.863429 L359.981576,812.018424 L297.894359,778.105641 L172.639984,712.772555 L164.335014,711.977856 L153.053079,725.107885 L116.376352,788.349573 L109.312469,803.348320 z M1389.525448,1768.474552 L1407.513436,1774.486564 L1413.869757,1800.130242 L1412.953348,1866.953348 L1406.579714,1880.579714 L1395.009737,1885.009737 L1338.472857,1885.527143 L1325.433374,1882.566626 L1316.219729,1859.780271 L1316.786728,1786.786728 L1328.253795,1770.253795 L1350.059231,1768.059302 z M1893.371524,2115.411787 L1851.991842,2117.991842 L838.000003,2117.999997 L794.472439,2117.527561 L781.657684,2114.342316 L773.100614,2098.899386 L763.737677,1944.151419 L752.333996,1803.666004 L742.323061,1692.612247 L753.946888,1673.935527 L803.297229,1637.297229 L893.321815,1575.321815 L910.495011,1566.495011 L939.127049,1557.127049 L979.315468,1549.315468 L1024.559072,1544.559072 L1052.007926,1544.007926 L1611.992105,1544.007895 L1682.605426,1547.394574 L1723.124029,1552.875971 L1783.130662,1564.869338 L1800.525951,1573.474049 L1881.162405,1624.837595 L1961.587948,1679.937812 L1969.180813,1697.349908 L1967.029331,1737.029787 L1952.958773,1876.958773 L1945.022931,1973.022931 L1934.863896,2082.852536 L1932.590049,2096.346808 L1923.575936,2108.413453 z M1327.832187,1144.176190 L1318.440140,1121.173313 L1334.256386,1098.256383 L1357.313760,1089.677732 L1370.960049,1089.509578 L1394.578275,1097.422058 L1409.562272,1114.140743 L1412.756731,1126.222757 L1406.217240,1142.315150 L1383.281051,1151.276834 L1354.473385,1151.519666 z M2207.936473,421.995931 L2214.008159,401.999175 L2208.784859,393.024209 L2149.779628,350.240671 L2134.864698,342.731049 L2118.968126,347.362983 L2051.262439,433.262439 L1984.888018,518.888018 L1944.761161,572.761161 L1917.078374,607.078374 L1875.985383,663.452512 L1873.166105,674.593184 L1883.926934,686.162814 L1948.954445,726.705359 L1958.997397,730.080747 L1978.482405,718.460799 L2071.414270,599.414270 L2151.084240,495.084240 L2173.642011,467.642011 z M2256.000062,1354.000062 L2213.534682,1355.534682 L2200.890259,1370.890259 L2200.247233,1443.752767 L2202.494413,1457.505587 L2213.534682,1466.465318 L2256.000062,1467.999938 L2585.999938,1467.999938 L2628.465318,1466.465318 L2639.505587,1457.505587 L2641.752767,1443.752767 L2641.109741,1370.890259 L2628.465318,1355.534682 L2585.999938,1354.000062 z" fill="black" stroke-width="1.000000" stroke="none" /></svg>