<?xml version="1.0" encoding="utf-8" ?><svg xmlns="http://www.w3.org/2000/svg" version="1.1" viewBox="0.000000 0.000000 2040.000000 2040.000000"><path d="M819.888304,1485.876307 L803.496856,1500.542875 L783.855485,1501.105372 L777.248119,1494.370453 L776.647163,1478.738000 L788.004515,1459.962895 L952.428122,1248.428122 L1027.278986,1151.278986 L1083.336449,1079.336449 L1127.297618,1021.297618 L1202.198549,924.198549 L1334.990270,750.990270 L1350.426078,734.426078 L1367.733023,719.734559 L1386.829970,709.099034 L1408.145873,706.190261 L1413.514644,710.330641 L1407.760458,726.219884 L1218.859220,970.859220 L1200.080678,996.080678 L1088.685472,1140.685472 L1050.701833,1190.701833 L951.122070,1319.122070 z M1301.921187,947.921187 L1348.195282,886.195282 L1373.790547,853.790547 L1415.099673,799.148593 L1429.926416,781.626474 L1450.057581,753.827735 L1470.871944,728.871859 L1501.855328,699.855328 L1531.640149,679.640149 L1571.947851,659.947851 L1616.097272,646.097272 L1666.702411,636.702411 L1692.484013,630.484013 L1719.172805,621.172805 L1750.224624,606.224624 L1787.722969,581.722969 L1819.296692,553.296692 L1849.783148,517.783148 L1868.905832,488.905832 L1880.318110,468.318110 L1894.652152,434.652152 L1903.680696,407.680696 L1913.061545,361.061550 L1915.522757,331.527161 L1915.817987,300.153127 L1912.964177,259.035819 L1908.075920,231.926652 L1896.381528,198.198865 L1886.841506,195.458502 L1878.205949,206.587704 L1861.863801,233.863950 L1809.264809,317.264809 L1788.009259,350.009259 L1774.457809,368.457809 L1758.995646,384.995646 L1738.804324,398.804189 L1705.610246,409.414574 L1679.126424,410.385361 L1663.558081,408.385206 L1638.433163,401.566632 L1614.835974,391.164026 L1592.214480,377.785520 L1568.396364,359.603636 L1540.338876,329.661124 L1527.834860,310.165161 L1518.012298,288.000028 L1512.002566,262.635867 L1510.861291,246.009452 L1514.154014,219.938063 L1522.391919,196.389777 L1533.895133,175.895132 L1547.064681,157.064681 L1643.874081,28.331400 L1650.359061,12.978160 L1644.989597,8.244051 L1625.079574,4.978235 L1595.366945,5.450130 L1572.242184,8.243675 L1545.929572,13.929573 L1508.017109,26.017109 L1463.877599,47.877599 L1437.150414,65.150414 L1417.069002,81.069002 L1382.769103,114.769103 L1357.056649,147.056649 L1344.486928,166.486928 L1328.590923,196.590923 L1312.055659,238.055659 L1303.424900,269.424900 L1294.837224,320.837224 L1292.321758,358.317489 L1292.154431,389.861184 L1293.583593,443.939259 L1292.622508,466.643625 L1288.764300,494.764352 L1282.939858,516.939858 L1266.955684,556.955684 L1241.670194,601.670194 L1204.489624,654.489624 L1148.752887,728.752887 L985.373778,943.373778 L961.823041,973.823041 L857.303275,1111.303275 L756.819683,1242.819683 L666.496951,1360.496951 L597.556669,1449.556669 L566.869726,1486.869726 L543.431938,1511.431918 L518.276945,1532.188734 L502.151688,1539.149359 L489.790126,1540.955085 L424.158155,1538.330956 L377.994042,1541.994074 L344.865453,1548.865453 L311.497828,1561.497828 L291.798005,1573.798005 L275.254665,1587.254665 L255.873586,1607.873586 L242.650125,1626.650125 L223.743005,1659.743005 L190.184079,1736.183926 L181.535982,1765.417451 L179.498441,1785.966550 L183.313845,1812.724109 L193.350945,1840.649078 L224.505592,1905.494408 L241.938177,1936.061823 L268.372652,1971.627348 L295.630737,1996.369263 L317.148991,2010.851009 L338.615530,2021.384470 L363.226136,2028.773862 L402.809708,2035.168025 L433.790544,2037.190490 L455.635209,2035.603258 L506.052992,2025.817853 L552.528488,2018.512992 L573.849325,2011.849244 L604.459541,1996.459541 L623.527732,1983.527732 L636.278696,1972.278696 L650.853717,1954.853717 L663.233460,1935.233460 L682.530158,1896.530158 L699.891280,1843.891280 L715.622895,1779.622895 L731.610981,1725.610981 L744.957630,1690.957630 L768.215727,1648.215727 L802.995498,1596.995498 L840.074101,1548.074101 L934.138743,1426.138743 L957.084394,1397.084394 L1068.203729,1252.203729 L1175.184799,1113.184799 L1249.585061,1015.585061 z M377.000000,1627.000000 L377.000000,1627.000000 L377.000000,1627.000000 L377.000000,1627.000000 z M546.229778,1946.238078 L520.272573,1952.272585 L466.032930,1958.032879 L424.876708,1960.682902 L396.534896,1959.169750 L383.095899,1952.877262 L375.385527,1944.627861 L352.837776,1905.993748 L308.119756,1833.884550 L297.783866,1812.664375 L295.142051,1797.688189 L297.914365,1779.548257 L307.304043,1758.162222 L324.842868,1737.638414 L325.877117,1726.351154 L345.897051,1681.839918 L362.230181,1650.278160 L375.214734,1632.245154 L395.256363,1618.754125 L421.795097,1613.863259 L487.385214,1609.237609 L530.087192,1607.961275 L547.669810,1611.627251 L564.928725,1625.135049 L578.666330,1643.333976 L605.007738,1684.992262 L642.130518,1751.538512 L646.357103,1768.592721 L645.430034,1780.553356 L637.566946,1803.584977 L626.669869,1826.669884 L591.758226,1895.695448 L570.520175,1929.430298 L557.080501,1941.160215 z M576.870358,1916.870358 L576.879642,1916.879642 L576.870358,1916.870358 L576.879642,1916.879642 z M311.000000,1759.000000 L311.000000,1759.000000 L311.000000,1759.000000 L311.000000,1759.000000 z M535.587739,1616.144769 L507.066547,1619.411936 L521.134431,1620.449417 z" fill="#999" stroke="none" /></svg>